Coordinates
version=1
nRows=8
nColumns=36
inDegrees=yes

Units are S.I. units (second, meters, Newtons, ...)
If the header above contains a line with 'inDegrees', this indicates whether rotational values are in degrees (yes) or radians (no).

endheader
time	pelvis_tilt	pelvis_list	pelvis_rotation	pelvis_tx	pelvis_ty	pelvis_tz	hip_flexion_r	hip_adduction_r	hip_rotation_r	knee_angle_r	knee_angle_r_beta	ankle_angle_r	subtalar_angle_r	mtp_angle_r	hip_flexion_l	hip_adduction_l	hip_rotation_l	knee_angle_l	knee_angle_l_beta	ankle_angle_l	subtalar_angle_l	mtp_angle_l	lumbar_extension	lumbar_bending	lumbar_rotation	arm_flex_r	arm_add_r	arm_rot_r	elbow_flex_r	pro_sup_r	arm_flex_l	arm_add_l	arm_rot_l	elbow_flex_l	pro_sup_l
      1.58000000	    -22.72903891	     -0.08521642	      1.05960582	     -0.27670616	      0.66841822	     -0.63801924	     83.21720070	    -16.97828397	      2.98035862	     93.63624982	      1.63426086	     33.41427649	     -6.24046709	     -7.33798686	     83.70705382	     -7.40305535	      4.91735890	     93.15755728	      1.62590610	     32.05445622	     -5.54390440	     -7.33798686	    -32.21735564	     -2.90716651	      0.30894225	    113.06946976	    -25.97903395	     29.00478858	    104.28527174	     92.79033987	    102.69681953	    -29.54638753	     33.45679738	    108.96006880	    111.15663445
      1.59000000	    -22.65554408	     -0.34006847	      1.23358691	     -0.27294221	      0.67852060	     -0.63819528	     81.47873573	    -17.15927164	      2.02014414	     91.90672704	      1.60407499	     33.10608780	     -6.26240887	     -7.33991540	     82.35950867	     -7.63930984	      4.70366322	     91.50677829	      1.59709457	     31.59916426	     -5.17931788	     -7.33991540	    -31.09155501	     -2.70301289	      0.18467572	    114.24838023	    -27.00551186	     30.32682080	    105.08513017	     92.63519283	    104.46524048	    -30.04724999	     34.51783066	    109.45740324	    111.14693010
      1.60000000	    -22.49983420	     -0.63166228	      1.49677185	     -0.26896307	      0.68928197	     -0.63852522	     79.54312413	    -17.41581100	      0.94589919	     90.04605937	      1.57160021	     32.76722741	     -6.26418332	     -7.34180255	     80.85651126	     -7.78769545	      4.52694054	     89.72391411	      1.56597772	     31.10467044	     -4.81794673	     -7.34180255	    -29.97256923	     -2.40623820	      0.03025580	    115.41268675	    -28.15885330	     31.89331726	    105.85629548	     92.48085321	    106.22324548	    -30.65040519	     35.72186227	    110.01832199	    111.21429599
      1.61000000	    -22.21704214	     -0.86990842	      1.75443108	     -0.26478012	      0.70068177	     -0.63870644	     77.43802798	    -17.60801297	     -0.08820128	     88.09425327	      1.53753477	     32.34098226	     -6.40212705	     -7.34515535	     79.11300264	     -7.95800533	      4.27148985	     87.80708952	      1.53252282	     30.56688163	     -4.46193744	     -7.34515535	    -28.92259482	     -2.18584649	     -0.17497246	    116.62676746	    -29.43764470	     33.80110242	    106.50431115	     92.06666803	    108.28081602	    -31.50643560	     37.65373771	    110.54837230	    111.30837448
      1.62000000	    -21.90797037	     -1.08948770	      2.01535731	     -0.26033342	      0.71293917	     -0.63866611	     75.18266583	    -17.70980792	     -1.11134039	     85.94192516	      1.49996956	     31.85040545	     -6.40675955	     -7.34749447	     77.19994332	     -8.16055570	      3.96097543	     85.65464774	      1.49495562	     29.95828495	     -4.01842667	     -7.34749447	    -27.83879824	     -2.03070100	     -0.54716737	    117.37747524	    -30.68763554	     35.41209822	    107.40900321	     91.79927130	    110.26437242	    -32.52271881	     39.59126753	    111.38526972	    111.41584065
      1.63000000	    -21.42482312	     -1.29319626	      2.21783878	     -0.25556707	      0.72607601	     -0.63852103	     72.65404275	    -17.75068451	     -2.22592220	     83.61992588	      1.45944303	     31.21177616	     -6.53203036	     -7.35024898	     74.98695802	     -8.39673205	      3.66657669	     83.37259622	      1.45512631	     29.26069417	     -3.62468048	     -7.35024898	    -26.82536028	     -1.94476845	     -0.83050231	    117.81443880	    -32.05852088	     37.13391452	    108.29304388	     91.43964601	    112.19549795	    -33.54190792	     41.73573752	    112.09073690	    111.40388923
      1.64000000	    -20.93309556	     -1.60206802	      2.52194318	     -0.25049634	      0.73982487	     -0.63864112	     69.94639023	    -17.80115083	     -3.51140769	     81.09633880	      1.41539812	     30.42636452	     -6.68446857	     -7.35370560	     72.74463675	     -8.59880550	      3.45008732	     80.95040519	      1.41285110	     28.41167574	     -3.30835269	     -7.35370560	    -25.67564875	     -1.71983140	     -1.15103790	    117.87245615	    -33.54330484	     38.91450760	    109.27450316	     90.91445982	    113.64642887	    -34.51651929	     43.62172483	    112.89389487	    111.22983418
      1.65000000	    -20.39841093	     -1.98753323	      2.88902737	     -0.24500275	      0.75438029	     -0.63894828	     67.02480508	    -17.82087570	     -4.96343144	     78.35374826	      1.36753089	     29.45638196	     -6.79750549	     -7.35777954	     70.40063840	     -8.77888415	      3.28771601	     78.36061525	      1.36765074	     27.31178902	     -3.07229949	     -7.35777954	    -24.44215649	     -1.38014016	     -1.43309795	    117.59034765	    -35.18407868	     40.79424522	    110.43468415	     90.21764330	    114.41641993	    -35.52767575	     45.23559233	    113.98880060	    110.85451293
